# xmcd CD database file generated by Grip 2.94
# 
# Track frame offsets:
#       150
#       12205
#       29132
#       42877
#       53522
#       65747
#       78370
#       103427
#       114912
#       128725
# 
# Disc length: 1859 seconds
# 
# Revision: 3
# Processed by: cddbd v1.4b41PL1 Copyright (c) Steve Scherf et al.
# Submitted via: Grip 2.94
# 
DISCID=8207410a
DTITLE=Howlin' Wolf - Highway 49 and Other Classics
DYEAR=1900
DGENRE=
TTITLE0=Ain't Superstitious
TTITLE1=Goin' Down Slow
TTITLE2=I Walked From Dallas
TTITLE3=Hold On To Your Monkey
TTITLE4=Cause of it All
TTITLE5=Killing Floor
TTITLE6=Red Rooster
TTITLE7=Built for Comfort
TTITLE8=Highway 49
TTITLE9=Wang Dang Doodle
EXTD=
EXTT0=
EXTT1=
EXTT2=
EXTT3=
EXTT4=
EXTT5=
EXTT6=
EXTT7=
EXTT8=
EXTT9=
PLAYORDER=
